<?xml version="1.0" encoding="utf-8"?>
<!-- Generator: Adobe Illustrator 24.0.0, SVG Export Plug-In . SVG Version: 6.00 Build 0)  -->
<svg version="1.1" id="图层_1" xmlns="http://www.w3.org/2000/svg" xmlns:xlink="http://www.w3.org/1999/xlink" x="0px" y="0px"
	 viewBox="0 0 624 225" style="enable-background:new 0 0 624 225;" xml:space="preserve">
<style type="text/css">
	.st0{fill:#27B3CD;}
	.st1{fill:url(#SVGID_1_);}
	.st2{fill:#5A2E7E;}
	.st3{fill:url(#SVGID_2_);}
	.st4{fill:url(#SVGID_3_);}
	.st5{fill:url(#SVGID_4_);}
	.st6{fill:url(#SVGID_5_);}
	.st7{fill:url(#SVGID_6_);}
	.st8{fill:url(#SVGID_7_);}
	.st9{fill:url(#SVGID_8_);}
	.st10{fill:url(#SVGID_9_);}
	.st11{fill:#503C8D;}
</style>
<g>
	<g>
		<path class="st0" d="M25.5,38.8c-0.2,0.2-0.4,0.4-0.6,0.6c-28.4,49-28.5,98.1-0.4,147c0.3,0.3,0.6,0.6,0.9,0.9
			c10.4-10.2,20.8-20.5,31.2-30.7C39,127.7,39,98.6,56.8,69.5C46.3,59.2,35.8,49,25.5,38.8z"/>
		
			<linearGradient id="SVGID_1_" gradientUnits="userSpaceOnUse" x1="6665.54" y1="-6801.8047" x2="6702.5029" y2="-6801.8047" gradientTransform="matrix(-4.287457e-02 0.9991 0.9991 4.287457e-02 7147.6558 -6367.0991)">
			<stop  offset="0" style="stop-color:#FFEE1D"/>
			<stop  offset="0.2326" style="stop-color:#F5B705"/>
			<stop  offset="0.2822" style="stop-color:#F3AB00"/>
			<stop  offset="0.8418" style="stop-color:#BD1F7A"/>
			<stop  offset="1" style="stop-color:#BE3980"/>
		</linearGradient>
		<polygon class="st1" points="47.4,36.9 83.6,1.4 74.4,35.4 		"/>
		<polygon class="st2" points="83.6,1.4 74.4,35.4 125.1,113.2 		"/>
		
			<linearGradient id="SVGID_2_" gradientUnits="userSpaceOnUse" x1="6699.9121" y1="-6778.6953" x2="6775.4727" y2="-6778.6953" gradientTransform="matrix(-4.287457e-02 0.9991 0.9991 4.287457e-02 7147.6558 -6367.0991)">
			<stop  offset="0" style="stop-color:#D377A7"/>
			<stop  offset="1" style="stop-color:#9F1883"/>
		</linearGradient>
		<polygon class="st3" points="47.4,36.9 125.1,113.2 74.4,35.4 		"/>
		
			<linearGradient id="SVGID_3_" gradientUnits="userSpaceOnUse" x1="9655.2207" y1="1088.5494" x2="9584.4277" y2="1220.5358" gradientTransform="matrix(-1 0 0 1 9754.8604 -1090.3558)">
			<stop  offset="0" style="stop-color:#2485CA"/>
			<stop  offset="0.2019" style="stop-color:#227CC2"/>
			<stop  offset="0.5333" style="stop-color:#1B63AE"/>
			<stop  offset="0.951" style="stop-color:#103B8C"/>
			<stop  offset="1" style="stop-color:#0F3688"/>
		</linearGradient>
		<polygon class="st4" points="83.6,1.4 125.1,113.2 197.5,113.1 		"/>
		
			<linearGradient id="SVGID_4_" gradientUnits="userSpaceOnUse" x1="6665.5396" y1="-6729.1035" x2="6772.2153" y2="-6729.1035" gradientTransform="matrix(-4.287457e-02 0.9991 0.9991 4.287457e-02 7147.6558 -6367.0991)">
			<stop  offset="0" style="stop-color:#7AC5EB"/>
			<stop  offset="5.096440e-03" style="stop-color:#7AC5EB"/>
			<stop  offset="0.5969" style="stop-color:#17B5E6"/>
			<stop  offset="1" style="stop-color:#17B5E6"/>
		</linearGradient>
		<polygon class="st5" points="74.4,35.4 83.6,1.4 197.5,113.1 		"/>
		
			<linearGradient id="SVGID_5_" gradientUnits="userSpaceOnUse" x1="9679.6475" y1="1086.3699" x2="9664.376" y2="1141.457" gradientTransform="matrix(-1 0 0 1 9754.8604 -1090.3558)">
			<stop  offset="0" style="stop-color:#4B3A80"/>
			<stop  offset="1" style="stop-color:#BB7FB1"/>
		</linearGradient>
		<polygon class="st6" points="102.9,53.5 74.4,35.4 83.6,1.4 		"/>
		
			<linearGradient id="SVGID_6_" gradientUnits="userSpaceOnUse" x1="6758.8472" y1="-6795.0967" x2="6835.7217" y2="-6795.0967" gradientTransform="matrix(0.2541 1.4867 0.9991 4.287501e-02 5150.895 -9645.5342)">
			<stop  offset="0" style="stop-color:#D377A7"/>
			<stop  offset="1" style="stop-color:#9F1883"/>
		</linearGradient>
		<polygon class="st7" points="47.5,189.4 83.6,224.9 125.1,113.2 		"/>
		
			<linearGradient id="SVGID_7_" gradientUnits="userSpaceOnUse" x1="6829.96" y1="-6836.3872" x2="6772.3633" y2="-6728.0708" gradientTransform="matrix(0.2541 1.4867 0.9991 4.287501e-02 5150.895 -9645.5342)">
			<stop  offset="0" style="stop-color:#FFEE1D"/>
			<stop  offset="0.2326" style="stop-color:#F5B705"/>
			<stop  offset="0.2822" style="stop-color:#F3AB00"/>
			<stop  offset="0.8418" style="stop-color:#BD1F7A"/>
			<stop  offset="1" style="stop-color:#BE3980"/>
		</linearGradient>
		<polygon class="st8" points="47.5,189.4 83.6,224.9 197.5,113.1 		"/>
		
			<linearGradient id="SVGID_8_" gradientUnits="userSpaceOnUse" x1="6756.6377" y1="-6743.4121" x2="6835.7329" y2="-6743.4121" gradientTransform="matrix(0.2541 1.4867 0.9991 4.287501e-02 5150.895 -9645.5342)">
			<stop  offset="0" style="stop-color:#BE3583"/>
			<stop  offset="0.8" style="stop-color:#8E0075"/>
			<stop  offset="1" style="stop-color:#8E0075"/>
		</linearGradient>
		<polygon class="st9" points="83.6,224.9 125.1,113.2 197.5,113.1 		"/>
		
			<linearGradient id="SVGID_9_" gradientUnits="userSpaceOnUse" x1="6818.3438" y1="-6802.5391" x2="6749.0396" y2="-6673.0063" gradientTransform="matrix(0.2541 1.4867 0.9991 4.287501e-02 5150.895 -9645.5342)">
			<stop  offset="0" style="stop-color:#FFEE1D"/>
			<stop  offset="0.2326" style="stop-color:#F5B705"/>
			<stop  offset="0.2822" style="stop-color:#F3AB00"/>
			<stop  offset="1" style="stop-color:#BD1F7A"/>
		</linearGradient>
		<polygon class="st10" points="108.3,158.5 197.5,113.1 83.6,224.9 		"/>
	</g>
	<path class="st11" d="M524.5,78.4c3-1.5,5.7-3.5,8.1-5.8c5.6-5.7,8.6-13.1,8.4-20.9c-0.3-15.9-13.4-28.9-29.4-28.9h-21.2v21l21.2,0
		c2.2,0,4.4,0.9,5.9,2.5c1.6,1.6,2.4,3.8,2.4,6c-0.1,4.5-4,8.1-8.6,8.1h-9.1c-4.3,0-8.1,2.6-9.7,6.5c-1.6,4-0.7,8.5,2.3,11.5
		l21.7,21.7c2,2,4.6,3.1,7.4,3.1h25.4L524.5,78.4z"/>
	<path class="st11" d="M598.4,103.2v-6.5c-4.9,4.9-9.3,7.2-17.7,7.2c-8,0-14.6-2.7-19.1-7.1c-4.6-4.6-6.9-11.2-6.9-18.6
		c0-12,8.1-23.1,27-23.1h16.1v-2.1c0-7.2-3.5-9.9-12-9.9c-6.2,0-8.9,1.5-12.7,5.3L558,33.4c8.1-8.1,15.5-10.6,29-10.6
		c22.8,0,35,9.5,35,28.8v51.6H598.4z M597.8,71.2h-12.3c-4.7,0-7.7,2.7-7.7,6.4c0,3.5,2.7,6.6,8,6.6c4.7,0,6.9-0.4,9.6-3
		c1.8-1.6,2.4-4.1,2.4-8V71.2z"/>
	<path class="st11" d="M441.2,22.6c-21.5,0-37.1,17.1-37.1,40.6c0,23.9,16.3,40.6,39.5,40.6c12.3,0,22.2-4.5,28.7-12.9l0.9-1.2
		l-12.5-15.4l-1.5,1.6c-4.3,4.7-8.9,6.7-15.2,6.7c-2.8,0-5.4-0.5-7.7-1.5l-0.3-0.1c-2.4-1.1-4.4-2.7-5.9-4.7c-1.1-1.5-2-3.3-2.6-5.2
		l-0.5-2.1c-0.5-2.1-0.8-4.3-0.8-6.5c0-1.9,0.2-3.7,0.5-5.4l0.1-0.6c0.8-4.7,2.8-8.5,5.9-10.9c0.9-0.7,2-1.3,3.5-1.9
		c1.5-0.6,3.2-0.8,5-0.8c7,0,12.2,4.5,13.9,11.9h-15.7v16.5h37.4l0.2-3.6c0.1-1.4,0.2-3,0.2-4.2C477.4,39.4,462.5,22.6,441.2,22.6"
		/>
	<g>
		<g>
			<polygon class="st11" points="261.3,58.9 276.6,103.2 302.6,103.2 270.5,22.8 250.7,22.8 218.7,103.2 245,103.2 			"/>
		</g>
	</g>
	<polygon class="st11" points="403.7,22.8 375.2,22.8 358.8,44.2 342.5,22.8 313.8,22.8 344.5,63 313.8,103.2 342.5,103.2 
		358.8,81.7 375.2,103.2 403.7,103.2 373.1,63 	"/>
	<g>
		<polygon class="st11" points="302.3,134.1 218.6,137.3 218.6,144.1 302.3,140.9 		"/>
		<polygon class="st11" points="301.9,160.4 301.9,151.2 295.2,151.2 296.7,144.8 282.8,144.8 281.3,151.2 268,151.2 266.5,144.8 
			252.6,144.8 254.2,151.2 239.7,151.2 238.2,144.8 224.3,144.8 225.8,151.2 219,151.2 219,160.4 231.6,160.4 231.6,158 289.3,158 
			289.3,160.4 		"/>
		<polygon class="st11" points="396.2,134.1 383.6,134.1 383.6,137.8 350.8,137.8 350.8,134.1 338.2,134.1 338.2,137.8 326.2,137.8 
			326.2,144.6 338.2,144.6 338.2,149.9 350.8,149.9 350.8,144.6 383.6,144.6 383.6,149.9 396.2,149.9 396.2,144.6 409.1,144.6 
			409.1,137.8 396.2,137.8 		"/>
		<rect x="433.7" y="138.1" class="st11" width="80.9" height="6.8"/>
		<path class="st11" d="M539.3,158.6h12.2l-12.2,5.5v9l25.7-11.8c1.1-0.5,1.9-1.5,2.2-2.7h0.6v6.8c0,1.6,1,3,2.5,3.5l12.1,4.1v-9.5
			l-14.1-4.9h14.1v-6.8h-15v-7.7h15v-6.8H553v-3.2h-12.6v4.5l-4.3,3.1v12.1l2.4-1l0.8-0.5V158.6z M554.8,144.1v7.7h-14.6l12.3-7.7
			H554.8z"/>
		<path class="st11" d="M432.1,168.1h15.4v12.3c0,1.2-0.4,2.3-1.1,3.1l-7.2,7.5v12.7l19.2-19.2c1.1-1.2,1.7-2.7,1.7-4.3v-12.1h30.1
			v29.3c0,1.8,0.6,3.3,1.9,4.5c1.2,1.2,2.8,1.9,4.6,1.9h20.1v-6.8h-10.9c-0.8,0-1.5-0.3-2.1-0.9c-0.6-0.6-0.9-1.3-0.9-2.1v-1.8
			l0-0.7v-23.3h13.9v-6.8h-84.7V168.1z"/>
		<rect x="369.7" y="155.2" class="st11" width="12.9" height="25.9"/>
		<path class="st11" d="M331.4,184.5c0,1.2-0.4,2.3-1.2,3.1l-3.1,3.6v12.5l2.6-2.1l12.6-12.9c1.1-1.2,1.7-2.7,1.7-4.3v-30.3h-12.6
			V184.5z"/>
		<path class="st11" d="M404.8,184.5v-30.4h-12.6v30.3c0,1.6,0.6,3.2,1.7,4.3l12.7,13l2.5,2.1v-12.5l-3.1-3.6
			C405.2,186.8,404.8,185.7,404.8,184.5z"/>
		<path class="st11" d="M363.6,196.1c-0.6-0.6-0.9-1.3-0.9-2.1v-1.8l0-0.7v-37.3h-12.7v43.3c0,1.7,0.6,3.3,1.9,4.5
			c1.2,1.2,2.8,1.9,4.6,1.9h32.6v-6.8h-23.4C364.9,196.9,364.2,196.6,363.6,196.1z"/>
		<path class="st11" d="M291.8,188.3c4-1,6.7-4.6,6.7-8.8c0-5-4-9.1-9-9.1h-45.5l0.4-1.8h57.5v-6.8h-55l0.9-2.6H235l-1,2.6h-15v6.8
			h12.3l-12.7,35h13.8l5.7-17.1l12.2,3.2l-13,3.5l-3.7,10.2l34.6-9.1l34.9,9.2v-9.2l-17-4.7L291.8,188.3z M241.6,177.2h43
			c0.7,0,1.3,0.6,1.3,1.4v0.4c0,0.6-0.4,1.2-1,1.3l-16.7,4.6l-18.4-5h-9.3L241.6,177.2z"/>
		<path class="st11" d="M622,145.8c0-3.9-2.6-8.5-9.7-8.5h-28.3V173h38V145.8z M609.3,145.8v20.3h-12.8v-21.9h11
			C608.7,144.3,609.4,144.8,609.3,145.8z"/>
		<path class="st11" d="M612.5,174.8l-73.2,0v28.9H622v-20.6C622,179.3,619.5,174.8,612.5,174.8z M609.6,183.1v2.2h-57.7v-3.7H608
			C609,181.7,609.6,182.2,609.6,183.1z M551.9,196.9v-4.8h57.7v4.8H551.9z"/>
	</g>
</g>
</svg>
